<svg width="138" height="138" viewBox="0 0 138 138" fill="none" xmlns="http://www.w3.org/2000/svg">
<g filter="url(#filter0_d_1182_129)">
<path fill-rule="evenodd" clip-rule="evenodd" d="M130 65C130 100.899 100.899 130 65 130C29.1015 130 0 100.899 0 65C0 29.1015 29.1015 0 65 0C100.899 0 130 29.1015 130 65ZM52.9101 33.5833H76.4834L85.1501 42.25V60.2767L76.4834 68.9433H70.4167V76.4833H57.5901V65.39L63.4834 59.4967H69.2034L72.3234 56.3767V47.45L69.2034 44.33H60.2767L54.6434 50.05L45.2834 41.5567L52.9101 33.5833ZM57.5901 82.81V94.25H70.4167V82.81H57.5901Z" fill="#3F10BA"/>
<path d="M52.9101 33.5833H76.4834L85.1501 42.25V60.2767L76.4834 68.9433H70.4167V76.4833H57.5901V65.39L63.4834 59.4967H69.2034L72.3234 56.3767V47.45L69.2034 44.33H60.2767L54.6434 50.05L45.2834 41.5567L52.9101 33.5833Z" fill="white"/>
<path d="M57.5901 94.25V82.81H70.4167V94.25H57.5901Z" fill="white"/>
</g>
<defs>
<filter id="filter0_d_1182_129" x="0" y="0" width="138" height="138" filterUnits="userSpaceOnUse" color-interpolation-filters="sRGB">
<feFlood flood-opacity="0" result="BackgroundImageFix"/>
<feColorMatrix in="SourceAlpha" type="matrix" values="0 0 0 0 0 0 0 0 0 0 0 0 0 0 0 0 0 0 127 0" result="hardAlpha"/>
<feOffset dx="8" dy="8"/>
<feComposite in2="hardAlpha" operator="out"/>
<feColorMatrix type="matrix" values="0 0 0 0 0.126716 0 0 0 0 0 0 0 0 0 0.458333 0 0 0 1 0"/>
<feBlend mode="normal" in2="BackgroundImageFix" result="effect1_dropShadow_1182_129"/>
<feBlend mode="normal" in="SourceGraphic" in2="effect1_dropShadow_1182_129" result="shape"/>
</filter>
</defs>
</svg>
