<svg width="83" height="83" viewBox="0 0 83 83" fill="none" xmlns="http://www.w3.org/2000/svg">
<g clip-path="url(#clip0_1049_309)">
<circle cx="41.5" cy="41.5" r="41.5" fill="#DB00FF"/>
<path d="M21.2895 59.1667H28.7355V40.9691L18.0984 32.9408V55.9553C18.0984 57.7296 19.5264 59.1667 21.2895 59.1667Z" fill="white"/>
<path d="M54.2646 59.1667H61.7106C63.4737 59.1667 64.9018 57.7296 64.9018 55.9553V32.9408L54.2646 40.9691V59.1667Z" fill="white"/>
<path d="M54.2646 27.0534V40.9691L64.9018 32.9408V28.659C64.9018 24.6904 60.3996 22.4237 57.243 24.8054L54.2646 27.0534Z" fill="#EBEBEB"/>
<path d="M28.7354 40.9691V27.0533L41.4999 36.6873L54.2644 27.0533V40.9691L41.4999 50.6031L28.7354 40.9691Z" fill="white"/>
<path d="M18.0984 28.659V32.9408L28.7355 40.9691V27.0534L25.7571 24.8054C22.6005 22.4237 18.0984 24.6904 18.0984 28.659Z" fill="#EBEBEB"/>
</g>
<defs>
<clipPath id="clip0_1049_309">
<rect width="83" height="83" fill="white"/>
</clipPath>
</defs>
</svg>
