<svg width="83" height="83" viewBox="0 0 83 83" fill="none" xmlns="http://www.w3.org/2000/svg">
<g clip-path="url(#clip0_1049_325)">
<circle cx="41.5" cy="41.5" r="41.5" fill="#DB00FF"/>
<path d="M41.5912 16.1401C36.3931 16.1399 31.4051 18.2778 27.7111 22.0893C24.0171 25.9008 21.9157 31.0778 21.8638 36.4951C21.8638 50.5791 39.2485 66.2565 39.9883 66.9248C40.435 67.3229 41.0034 67.5417 41.5912 67.5417C42.1789 67.5417 42.7473 67.3229 43.194 66.9248C44.0571 66.2565 61.3185 50.5791 61.3185 36.4951C61.2666 31.0778 59.1652 25.9008 55.4712 22.0893C51.7773 18.2778 46.7892 16.1399 41.5912 16.1401ZM41.5912 61.5019C37.4731 57.4155 26.7956 46.0815 26.7956 36.4951C26.7956 32.4054 28.3544 28.4831 31.1291 25.5912C33.9038 22.6993 37.6671 21.0747 41.5912 21.0747C45.5152 21.0747 49.2785 22.6993 52.0532 25.5912C54.8279 28.4831 56.3867 32.4054 56.3867 36.4951C56.3867 46.0044 45.7092 57.4155 41.5912 61.5019Z" fill="white"/>
<path d="M41.5912 26.4205C39.8842 26.4205 38.2155 26.9481 36.7962 27.9365C35.3769 28.9249 34.2707 30.3298 33.6174 31.9735C32.9642 33.6171 32.7933 35.4258 33.1263 37.1707C33.4593 38.9156 34.2813 40.5184 35.4883 41.7764C36.6954 43.0344 38.2332 43.8911 39.9074 44.2382C41.5816 44.5853 43.317 44.4071 44.894 43.7263C46.4711 43.0455 47.819 41.8925 48.7674 40.4133C49.7157 38.934 50.2219 37.1949 50.2219 35.4158C50.2219 33.0301 49.3126 30.7421 47.694 29.0552C46.0755 27.3682 43.8802 26.4205 41.5912 26.4205ZM41.5912 39.2709C40.8596 39.2709 40.1445 39.0448 39.5362 38.6212C38.9279 38.1976 38.4538 37.5955 38.1739 36.8911C37.8939 36.1866 37.8207 35.4115 37.9634 34.6637C38.1061 33.9159 38.4584 33.229 38.9757 32.6898C39.493 32.1507 40.1521 31.7835 40.8696 31.6348C41.5871 31.486 42.3308 31.5623 43.0067 31.8541C43.6826 32.1459 44.2603 32.64 44.6667 33.274C45.0731 33.908 45.2901 34.6533 45.2901 35.4158C45.2901 36.4382 44.9004 37.4188 44.2067 38.1418C43.513 38.8647 42.5722 39.2709 41.5912 39.2709Z" fill="white"/>
</g>
<defs>
<clipPath id="clip0_1049_325">
<rect width="83" height="83" fill="white"/>
</clipPath>
</defs>
</svg>
