<svg width="34" height="33" viewBox="0 0 34 33" fill="none" xmlns="http://www.w3.org/2000/svg">
<path fill-rule="evenodd" clip-rule="evenodd" d="M16.9102 0C7.77017 0 0.367188 7.57051 0.367188 16.9173C0.367188 24.4033 5.10261 30.7261 11.6784 32.9677C12.5056 33.1157 12.8158 32.6082 12.8158 32.1641C12.8158 31.7623 12.7951 30.4301 12.7951 29.0133C8.63867 29.7957 7.56338 27.9771 7.23252 27.0255C7.04641 26.5391 6.23994 25.0377 5.53687 24.6359C4.95786 24.3187 4.13071 23.5363 5.51619 23.5151C6.81894 23.494 7.74949 24.7416 8.05967 25.2491C9.54854 27.8079 11.9266 27.0889 12.8778 26.6448C13.0226 25.5452 13.4568 24.8051 13.9324 24.3821C10.2516 23.9592 6.40537 22.5001 6.40537 16.0292C6.40537 14.1894 7.04641 12.6669 8.10103 11.4827C7.9356 11.0597 7.35659 9.32569 8.26645 6.99955C8.26645 6.99955 9.65193 6.55547 12.8158 8.73358C14.1392 8.35294 15.5454 8.16262 16.9515 8.16262C18.3577 8.16262 19.7638 8.35294 21.0873 8.73358C24.2511 6.53433 25.6366 6.99955 25.6366 6.99955C26.5464 9.32569 25.9674 11.0597 25.802 11.4827C26.8566 12.6669 27.4977 14.1683 27.4977 16.0292C27.4977 22.5212 23.6307 23.9592 19.9499 24.3821C20.5496 24.9108 21.0666 25.9258 21.0666 27.5118C21.0666 29.7745 21.0459 31.5931 21.0459 32.1641C21.0459 32.6082 21.3561 33.1369 22.1832 32.9677C28.7177 30.7261 33.4531 24.3821 33.4531 16.9173C33.4531 7.57051 26.0501 0 16.9102 0Z" fill="#2D0159"/>
</svg>
