<svg width="34" height="33" viewBox="0 0 34 33" fill="none" xmlns="http://www.w3.org/2000/svg">
<path fill-rule="evenodd" clip-rule="evenodd" d="M17.2122 0C8.07217 0 0.669189 7.57051 0.669189 16.9173C0.669189 24.4033 5.40461 30.7261 11.9804 32.9677C12.8076 33.1157 13.1178 32.6082 13.1178 32.1641C13.1178 31.7623 13.0971 30.4301 13.0971 29.0133C8.94067 29.7957 7.86538 27.9771 7.53452 27.0255C7.34841 26.5391 6.54194 25.0377 5.83887 24.6359C5.25986 24.3187 4.43271 23.5363 5.81819 23.5151C7.12095 23.494 8.05149 24.7416 8.36167 25.2491C9.85054 27.8079 12.2286 27.0889 13.1798 26.6448C13.3246 25.5452 13.7588 24.8051 14.2344 24.3821C10.5536 23.9592 6.70737 22.5001 6.70737 16.0292C6.70737 14.1894 7.34841 12.6669 8.40303 11.4827C8.2376 11.0597 7.65859 9.32569 8.56846 6.99955C8.56846 6.99955 9.95393 6.55547 13.1178 8.73358C14.4412 8.35294 15.8474 8.16262 17.2535 8.16262C18.6597 8.16262 20.0658 8.35294 21.3893 8.73358C24.5531 6.53433 25.9386 6.99955 25.9386 6.99955C26.8484 9.32569 26.2694 11.0597 26.104 11.4827C27.1586 12.6669 27.7997 14.1683 27.7997 16.0292C27.7997 22.5212 23.9327 23.9592 20.2519 24.3821C20.8516 24.9108 21.3686 25.9258 21.3686 27.5118C21.3686 29.7745 21.3479 31.5931 21.3479 32.1641C21.3479 32.6082 21.6581 33.1369 22.4852 32.9677C29.0197 30.7261 33.7551 24.3821 33.7551 16.9173C33.7551 7.57051 26.3521 0 17.2122 0Z" fill="#2D0159"/>
</svg>
