<svg width="33" height="33" viewBox="0 0 33 33" fill="none" xmlns="http://www.w3.org/2000/svg">
<path fill-rule="evenodd" clip-rule="evenodd" d="M16.5 0C7.38375 0 0 7.57051 0 16.9173C0 24.4033 4.72312 30.7261 11.2819 32.9677C12.1069 33.1157 12.4163 32.6082 12.4163 32.1641C12.4163 31.7623 12.3956 30.4301 12.3956 29.0133C8.25 29.7957 7.1775 27.9771 6.8475 27.0255C6.66187 26.5391 5.8575 25.0377 5.15625 24.6359C4.57875 24.3187 3.75375 23.5363 5.13562 23.5151C6.435 23.494 7.36313 24.7416 7.6725 25.2491C9.1575 27.8079 11.5294 27.0889 12.4781 26.6448C12.6225 25.5452 13.0556 24.8051 13.53 24.3821C9.85875 23.9592 6.0225 22.5001 6.0225 16.0292C6.0225 14.1894 6.66187 12.6669 7.71375 11.4827C7.54875 11.0597 6.97125 9.32569 7.87875 6.99955C7.87875 6.99955 9.26063 6.55547 12.4163 8.73358C13.7362 8.35294 15.1388 8.16262 16.5413 8.16262C17.9438 8.16262 19.3463 8.35294 20.6663 8.73358C23.8219 6.53433 25.2038 6.99955 25.2038 6.99955C26.1112 9.32569 25.5338 11.0597 25.3688 11.4827C26.4206 12.6669 27.06 14.1683 27.06 16.0292C27.06 22.5212 23.2031 23.9592 19.5319 24.3821C20.13 24.9108 20.6456 25.9258 20.6456 27.5118C20.6456 29.7745 20.625 31.5931 20.625 32.1641C20.625 32.6082 20.9344 33.1369 21.7594 32.9677C28.2769 30.7261 33 24.3821 33 16.9173C33 7.57051 25.6162 0 16.5 0Z" fill="#2D0159"/>
</svg>
