<svg width="35" height="33" viewBox="0 0 35 33" fill="none" xmlns="http://www.w3.org/2000/svg">
<path fill-rule="evenodd" clip-rule="evenodd" d="M17.4961 0C8.3561 0 0.953125 7.57051 0.953125 16.9173C0.953125 24.4033 5.68855 30.7261 12.2644 32.9677C13.0915 33.1157 13.4017 32.6082 13.4017 32.1641C13.4017 31.7623 13.381 30.4301 13.381 29.0133C9.22461 29.7957 8.14932 27.9771 7.81846 27.0255C7.63235 26.5391 6.82588 25.0377 6.1228 24.6359C5.5438 24.3187 4.71665 23.5363 6.10212 23.5151C7.40488 23.494 8.33542 24.7416 8.64561 25.2491C10.1345 27.8079 12.5125 27.0889 13.4637 26.6448C13.6085 25.5452 14.0427 24.8051 14.5184 24.3821C10.8375 23.9592 6.99131 22.5001 6.99131 16.0292C6.99131 14.1894 7.63235 12.6669 8.68696 11.4827C8.52153 11.0597 7.94253 9.32569 8.85239 6.99955C8.85239 6.99955 10.2379 6.55547 13.4017 8.73358C14.7251 8.35294 16.1313 8.16262 17.5375 8.16262C18.9436 8.16262 20.3498 8.35294 21.6732 8.73358C24.837 6.53433 26.2225 6.99955 26.2225 6.99955C27.1324 9.32569 26.5534 11.0597 26.3879 11.4827C27.4426 12.6669 28.0836 14.1683 28.0836 16.0292C28.0836 22.5212 24.2167 23.9592 20.5359 24.3821C21.1355 24.9108 21.6525 25.9258 21.6525 27.5118C21.6525 29.7745 21.6318 31.5931 21.6318 32.1641C21.6318 32.6082 21.942 33.1369 22.7692 32.9677C29.3036 30.7261 34.0391 24.3821 34.0391 16.9173C34.0391 7.57051 26.6361 0 17.4961 0Z" fill="#2D0159"/>
</svg>
