<svg width="81" height="53" viewBox="0 0 81 53" fill="none" xmlns="http://www.w3.org/2000/svg">
<path d="M20.3005 44.1667H27.7659V25.9691L17.1011 17.9408V40.9553C17.1011 42.7296 18.5328 44.1667 20.3005 44.1667Z" fill="white"/>
<path d="M53.3616 44.1667H60.8269C62.5946 44.1667 64.0264 42.7296 64.0264 40.9553V17.9408L53.3616 25.9691V44.1667Z" fill="white"/>
<path d="M53.3616 12.0534V25.9691L64.0264 17.9408V13.659C64.0264 9.69035 59.5125 7.42369 56.3477 9.80543L53.3616 12.0534Z" fill="#EBEBEB"/>
<path d="M27.7661 25.9691V12.0533L40.5639 21.6873L53.3617 12.0533V25.9691L40.5639 35.6031L27.7661 25.9691Z" fill="white"/>
<path d="M17.1011 13.659V17.9408L27.7659 25.9691V12.0534L24.7797 9.80543C21.615 7.42369 17.1011 9.69035 17.1011 13.659Z" fill="#EBEBEB"/>
</svg>
