<svg width="79" height="53" viewBox="0 0 79 53" fill="none" xmlns="http://www.w3.org/2000/svg">
<path d="M19.2895 44.1667H26.7354V25.9691L16.0983 17.9408V40.9553C16.0983 42.7296 17.5264 44.1667 19.2895 44.1667Z" fill="white"/>
<path d="M52.2645 44.1667H59.7105C61.4736 44.1667 62.9017 42.7296 62.9017 40.9553V17.9408L52.2645 25.9691V44.1667Z" fill="white"/>
<path d="M52.2645 12.0534V25.9691L62.9017 17.9408V13.659C62.9017 9.69035 58.3995 7.42369 55.2429 9.80543L52.2645 12.0534Z" fill="#EBEBEB"/>
<path d="M26.7355 25.9691V12.0533L39.5 21.6873L52.2645 12.0533V25.9691L39.5 35.6031L26.7355 25.9691Z" fill="white"/>
<path d="M16.0983 13.659V17.9408L26.7354 25.9691V12.0534L23.7571 9.80543C20.6005 7.42369 16.0983 9.69035 16.0983 13.659Z" fill="#EBEBEB"/>
</svg>
