<svg width="83" height="83" viewBox="0 0 83 83" fill="none" xmlns="http://www.w3.org/2000/svg">
<path d="M41.5001 82.6542C64.2289 82.6542 82.6543 64.2288 82.6543 41.5C82.6543 18.7712 64.2289 0.345825 41.5001 0.345825C18.7713 0.345825 0.345947 18.7712 0.345947 41.5C0.345947 64.2288 18.7713 82.6542 41.5001 82.6542Z" fill="#DB00FF"/>
<path d="M41.5002 17.0841C34.8741 17.0841 34.0302 17.1118 31.4296 17.2363C28.8289 17.3608 27.0582 17.7619 25.5089 18.3706C23.9042 18.9931 22.5347 19.8231 21.1791 21.1926C19.8234 22.5483 18.9934 23.9178 18.3571 25.5224C17.7484 27.0718 17.3334 28.8563 17.2227 31.4431C17.1121 34.0438 17.0706 34.8738 17.0706 41.5138C17.0706 48.1399 17.0982 48.9699 17.2227 51.5844C17.3472 54.1851 17.7484 55.9558 18.3571 57.5051C18.9796 59.1098 19.8096 60.4793 21.1791 61.8349C22.5347 63.1906 23.9042 64.0344 25.5089 64.6569C27.0582 65.2656 28.8427 65.6668 31.4296 65.7913C34.0302 65.9158 34.8602 65.9434 41.5002 65.9434C48.1264 65.9434 48.9564 65.9158 51.5709 65.7913C54.1716 65.6668 55.9422 65.2656 57.5054 64.6569C59.1101 64.0344 60.4657 63.1906 61.8214 61.8349C63.1771 60.4793 64.0071 59.1098 64.6434 57.5051C65.2382 55.9558 65.6532 54.1851 65.7777 51.5844C65.8884 48.9838 65.9299 48.1538 65.9299 41.5138C65.9299 34.8876 65.9022 34.0576 65.7777 31.4431C65.6532 28.8424 65.2382 27.0718 64.6434 25.5224C64.0209 23.9178 63.1771 22.5483 61.8214 21.1926C60.4657 19.8369 59.1101 19.0069 57.4916 18.3706C55.9284 17.7619 54.1577 17.3608 51.5571 17.2363C48.9564 17.1118 48.1264 17.0841 41.5002 17.0841ZM39.3146 21.4831C39.9647 21.4831 40.6841 21.4831 41.5002 21.4831C48.0157 21.4831 48.7904 21.5108 51.3634 21.6214C53.7427 21.7321 55.0292 22.1333 55.9007 22.4653C57.0351 22.9079 57.8512 23.4336 58.7089 24.2913C59.5666 25.1489 60.0922 25.9651 60.5349 27.0994C60.8669 27.9571 61.2681 29.2574 61.3787 31.6368C61.4894 34.2098 61.5171 34.9844 61.5171 41.4999C61.5171 48.0154 61.4894 48.7901 61.3787 51.3631C61.2681 53.7424 60.8669 55.0289 60.5349 55.9004C60.0922 57.0348 59.5666 57.8509 58.7089 58.7086C57.8512 59.5663 57.0489 60.0919 55.9007 60.5346C55.0431 60.8666 53.7427 61.2678 51.3634 61.3784C48.7904 61.4891 48.0157 61.5168 41.5002 61.5168C34.9847 61.5168 34.2101 61.4891 31.6371 61.3784C29.2577 61.2678 27.9712 60.8666 27.0997 60.5346C25.9654 60.0919 25.1492 59.5663 24.2916 58.7086C23.4339 57.8509 22.9082 57.0348 22.4656 55.9004C22.1336 55.0428 21.7324 53.7424 21.6217 51.3631C21.5111 48.7901 21.4834 48.0154 21.4834 41.4999C21.4834 34.9844 21.5111 34.2098 21.6217 31.6368C21.7324 29.2574 22.1336 27.9709 22.4656 27.0994C22.9082 25.9651 23.4339 25.1489 24.2916 24.2913C25.1492 23.4336 25.9654 22.9079 27.0997 22.4653C27.9574 22.1333 29.2577 21.7321 31.6371 21.6214C33.8919 21.5108 34.7634 21.4831 39.3146 21.4831ZM54.5312 25.5363C52.9127 25.5363 51.5986 26.8504 51.5986 28.4689C51.5986 30.0874 52.9127 31.4016 54.5312 31.4016C56.1497 31.4016 57.4639 30.0874 57.4639 28.4689C57.4639 26.8504 56.1497 25.5363 54.5312 25.5363ZM41.5002 28.9669C34.5697 28.9669 28.9672 34.5833 28.9672 41.4999C28.9672 48.4304 34.5836 54.0329 41.5002 54.0329C48.4307 54.0329 54.0332 48.4166 54.0332 41.4999C54.0332 34.5694 48.4307 28.9669 41.5002 28.9669ZM41.5002 33.3659C45.9961 33.3659 49.6342 37.0041 49.6342 41.4999C49.6342 45.9958 45.9961 49.6339 41.5002 49.6339C37.0044 49.6339 33.3662 45.9958 33.3662 41.4999C33.3662 37.0041 37.0044 33.3659 41.5002 33.3659Z" fill="white"/>
</svg>
