<svg width="83" height="83" viewBox="0 0 83 83" fill="none" xmlns="http://www.w3.org/2000/svg">
<path d="M41.5 82.6542C64.2288 82.6542 82.6542 64.2288 82.6542 41.5C82.6542 18.7712 64.2288 0.345825 41.5 0.345825C18.7712 0.345825 0.34584 18.7712 0.34584 41.5C0.34584 64.2288 18.7712 82.6542 41.5 82.6542Z" fill="#DB00FF"/>
<path d="M41.5 17.0841C34.8738 17.0841 34.03 17.1118 31.4293 17.2363C28.8287 17.3608 27.058 17.7619 25.5087 18.3706C23.904 18.9931 22.5345 19.8231 21.1788 21.1926C19.8232 22.5483 18.9932 23.9178 18.3568 25.5224C17.7482 27.0718 17.3332 28.8563 17.2225 31.4431C17.1118 34.0438 17.0703 34.8738 17.0703 41.5138C17.0703 48.1399 17.098 48.9699 17.2225 51.5844C17.347 54.1851 17.7482 55.9558 18.3568 57.5051C18.9793 59.1098 19.8093 60.4793 21.1788 61.8349C22.5345 63.1906 23.904 64.0344 25.5087 64.6569C27.058 65.2656 28.8425 65.6668 31.4293 65.7913C34.03 65.9158 34.86 65.9434 41.5 65.9434C48.1262 65.9434 48.9562 65.9158 51.5707 65.7913C54.1713 65.6668 55.942 65.2656 57.5052 64.6569C59.1098 64.0344 60.4655 63.1906 61.8212 61.8349C63.1768 60.4793 64.0068 59.1098 64.6432 57.5051C65.238 55.9558 65.653 54.1851 65.7775 51.5844C65.8882 48.9838 65.9297 48.1538 65.9297 41.5138C65.9297 34.8876 65.902 34.0576 65.7775 31.4431C65.653 28.8424 65.238 27.0718 64.6432 25.5224C64.0207 23.9178 63.1768 22.5483 61.8212 21.1926C60.4655 19.8369 59.1098 19.0069 57.4913 18.3706C55.9282 17.7619 54.1575 17.3608 51.5568 17.2363C48.9562 17.1118 48.1262 17.0841 41.5 17.0841ZM39.3143 21.4831C39.9645 21.4831 40.6838 21.4831 41.5 21.4831C48.0155 21.4831 48.7902 21.5108 51.3632 21.6214C53.7425 21.7321 55.029 22.1333 55.9005 22.4653C57.0348 22.9079 57.851 23.4336 58.7087 24.2913C59.5663 25.1489 60.092 25.9651 60.5347 27.0994C60.8667 27.9571 61.2678 29.2574 61.3785 31.6368C61.4892 34.2098 61.5168 34.9844 61.5168 41.4999C61.5168 48.0154 61.4892 48.7901 61.3785 51.3631C61.2678 53.7424 60.8667 55.0289 60.5347 55.9004C60.092 57.0348 59.5663 57.8509 58.7087 58.7086C57.851 59.5663 57.0487 60.0919 55.9005 60.5346C55.0428 60.8666 53.7425 61.2678 51.3632 61.3784C48.7902 61.4891 48.0155 61.5168 41.5 61.5168C34.9845 61.5168 34.2098 61.4891 31.6368 61.3784C29.2575 61.2678 27.971 60.8666 27.0995 60.5346C25.9652 60.0919 25.149 59.5663 24.2913 58.7086C23.4337 57.8509 22.908 57.0348 22.4653 55.9004C22.1333 55.0428 21.7322 53.7424 21.6215 51.3631C21.5108 48.7901 21.4832 48.0154 21.4832 41.4999C21.4832 34.9844 21.5108 34.2098 21.6215 31.6368C21.7322 29.2574 22.1333 27.9709 22.4653 27.0994C22.908 25.9651 23.4337 25.1489 24.2913 24.2913C25.149 23.4336 25.9652 22.9079 27.0995 22.4653C27.9572 22.1333 29.2575 21.7321 31.6368 21.6214C33.8917 21.5108 34.7632 21.4831 39.3143 21.4831ZM54.531 25.5363C52.9125 25.5363 51.5983 26.8504 51.5983 28.4689C51.5983 30.0874 52.9125 31.4016 54.531 31.4016C56.1495 31.4016 57.4637 30.0874 57.4637 28.4689C57.4637 26.8504 56.1495 25.5363 54.531 25.5363ZM41.5 28.9669C34.5695 28.9669 28.967 34.5833 28.967 41.4999C28.967 48.4304 34.5833 54.0329 41.5 54.0329C48.4305 54.0329 54.033 48.4166 54.033 41.4999C54.033 34.5694 48.4305 28.9669 41.5 28.9669ZM41.5 33.3659C45.9958 33.3659 49.634 37.0041 49.634 41.4999C49.634 45.9958 45.9958 49.6339 41.5 49.6339C37.0042 49.6339 33.366 45.9958 33.366 41.4999C33.366 37.0041 37.0042 33.3659 41.5 33.3659Z" fill="white"/>
</svg>
