<svg width="41" height="52" viewBox="0 0 41 52" fill="none" xmlns="http://www.w3.org/2000/svg">
<path d="M20.5912 0.140137C15.3931 0.139866 10.4051 2.27782 6.71107 6.08932C3.01709 9.90082 0.91575 15.0778 0.86377 20.4951C0.86377 34.5791 18.2485 50.2565 18.9883 50.9248C19.435 51.3229 20.0034 51.5417 20.5912 51.5417C21.1789 51.5417 21.7473 51.3229 22.194 50.9248C23.0571 50.2565 40.3185 34.5791 40.3185 20.4951C40.2666 15.0778 38.1652 9.90082 34.4712 6.08932C30.7773 2.27782 25.7892 0.139866 20.5912 0.140137ZM20.5912 45.5019C16.4731 41.4155 5.79562 30.0815 5.79562 20.4951C5.79562 16.4054 7.35443 12.4831 10.1291 9.59122C12.9038 6.69932 16.6671 5.07468 20.5912 5.07468C24.5152 5.07468 28.2785 6.69932 31.0532 9.59122C33.8279 12.4831 35.3867 16.4054 35.3867 20.4951C35.3867 30.0044 24.7092 41.4155 20.5912 45.5019Z" fill="white"/>
<path d="M20.5912 10.4205C18.8842 10.4205 17.2155 10.9481 15.7962 11.9365C14.3769 12.9249 13.2707 14.3298 12.6174 15.9735C11.9642 17.6171 11.7933 19.4258 12.1263 21.1707C12.4593 22.9156 13.2813 24.5184 14.4883 25.7764C15.6954 27.0344 17.2332 27.8911 18.9074 28.2382C20.5816 28.5853 22.317 28.4071 23.894 27.7263C25.4711 27.0455 26.819 25.8925 27.7674 24.4133C28.7157 22.934 29.2219 21.1949 29.2219 19.4158C29.2219 17.0301 28.3126 14.7421 26.694 13.0552C25.0755 11.3682 22.8802 10.4205 20.5912 10.4205ZM20.5912 23.2709C19.8596 23.2709 19.1445 23.0448 18.5362 22.6212C17.9279 22.1976 17.4538 21.5955 17.1739 20.8911C16.8939 20.1866 16.8207 19.4115 16.9634 18.6637C17.1061 17.9159 17.4584 17.229 17.9757 16.6898C18.493 16.1507 19.1521 15.7835 19.8696 15.6348C20.5871 15.486 21.3308 15.5623 22.0067 15.8541C22.6826 16.1459 23.2603 16.64 23.6667 17.274C24.0731 17.908 24.2901 18.6533 24.2901 19.4158C24.2901 20.4382 23.9004 21.4188 23.2067 22.1418C22.513 22.8647 21.5722 23.2709 20.5912 23.2709Z" fill="white"/>
</svg>
