<svg width="83" height="83" viewBox="0 0 83 83" fill="none" xmlns="http://www.w3.org/2000/svg">
<path d="M41.5638 82.6542C64.3518 82.6542 82.8252 64.2288 82.8252 41.5C82.8252 18.7712 64.3518 0.345825 41.5638 0.345825C18.7758 0.345825 0.30249 18.7712 0.30249 41.5C0.30249 64.2288 18.7758 82.6542 41.5638 82.6542Z" fill="#DB00FF"/>
<path d="M41.5641 17.0841C34.9207 17.0841 34.0746 17.1118 31.4672 17.2363C28.8598 17.3608 27.0845 17.7619 25.5311 18.3706C23.9223 18.9931 22.5492 19.8231 21.19 21.1926C19.8308 22.5483 18.9986 23.9178 18.3607 25.5224C17.7504 27.0718 17.3343 28.8563 17.2234 31.4431C17.1124 34.0438 17.0708 34.8738 17.0708 41.5138C17.0708 48.1399 17.0985 48.9699 17.2234 51.5844C17.3482 54.1851 17.7504 55.9558 18.3607 57.5051C18.9848 59.1098 19.8169 60.4793 21.19 61.8349C22.5492 63.1906 23.9223 64.0344 25.5311 64.6569C27.0845 65.2656 28.8736 65.6668 31.4672 65.7913C34.0746 65.9158 34.9068 65.9434 41.5641 65.9434C48.2075 65.9434 49.0397 65.9158 51.661 65.7913C54.2684 65.6668 56.0437 65.2656 57.6109 64.6569C59.2198 64.0344 60.579 63.1906 61.9382 61.8349C63.2974 60.4793 64.1295 59.1098 64.7675 57.5051C65.3639 55.9558 65.78 54.1851 65.9048 51.5844C66.0158 48.9838 66.0574 48.1538 66.0574 41.5138C66.0574 34.8876 66.0296 34.0576 65.9048 31.4431C65.78 28.8424 65.3639 27.0718 64.7675 25.5224C64.1434 23.9178 63.2974 22.5483 61.9382 21.1926C60.579 19.8369 59.2198 19.0069 57.5971 18.3706C56.0298 17.7619 54.2545 17.3608 51.6471 17.2363C49.0397 17.1118 48.2075 17.0841 41.5641 17.0841ZM39.3727 21.4831C40.0246 21.4831 40.7458 21.4831 41.5641 21.4831C48.0966 21.4831 48.8732 21.5108 51.4529 21.6214C53.8385 21.7321 55.1283 22.1333 56.0021 22.4653C57.1394 22.9079 57.9577 23.4336 58.8176 24.2913C59.6775 25.1489 60.2045 25.9651 60.6483 27.0994C60.9812 27.9571 61.3834 29.2574 61.4944 31.6368C61.6053 34.2098 61.633 34.9844 61.633 41.4999C61.633 48.0154 61.6053 48.7901 61.4944 51.3631C61.3834 53.7424 60.9812 55.0289 60.6483 55.9004C60.2045 57.0348 59.6775 57.8509 58.8176 58.7086C57.9577 59.5663 57.1532 60.0919 56.0021 60.5346C55.1422 60.8666 53.8385 61.2678 51.4529 61.3784C48.8732 61.4891 48.0966 61.5168 41.5641 61.5168C35.0316 61.5168 34.2549 61.4891 31.6752 61.3784C29.2897 61.2678 27.9999 60.8666 27.1261 60.5346C25.9888 60.0919 25.1705 59.5663 24.3106 58.7086C23.4507 57.8509 22.9237 57.0348 22.4798 55.9004C22.147 55.0428 21.7448 53.7424 21.6338 51.3631C21.5229 48.7901 21.4951 48.0154 21.4951 41.4999C21.4951 34.9844 21.5229 34.2098 21.6338 31.6368C21.7448 29.2574 22.147 27.9709 22.4798 27.0994C22.9237 25.9651 23.4507 25.1489 24.3106 24.2913C25.1705 23.4336 25.9888 22.9079 27.1261 22.4653C27.986 22.1333 29.2897 21.7321 31.6752 21.6214C33.9359 21.5108 34.8097 21.4831 39.3727 21.4831ZM54.629 25.5363C53.0063 25.5363 51.6887 26.8504 51.6887 28.4689C51.6887 30.0874 53.0063 31.4016 54.629 31.4016C56.2517 31.4016 57.5693 30.0874 57.5693 28.4689C57.5693 26.8504 56.2517 25.5363 54.629 25.5363ZM41.5641 28.9669C34.6155 28.9669 28.9984 34.5833 28.9984 41.4999C28.9984 48.4304 34.6294 54.0329 41.5641 54.0329C48.5126 54.0329 54.1297 48.4166 54.1297 41.4999C54.1297 34.5694 48.5126 28.9669 41.5641 28.9669ZM41.5641 33.3659C46.0716 33.3659 49.7193 37.0041 49.7193 41.4999C49.7193 45.9958 46.0716 49.6339 41.5641 49.6339C37.0565 49.6339 33.4089 45.9958 33.4089 41.4999C33.4089 37.0041 37.0565 33.3659 41.5641 33.3659Z" fill="white"/>
</svg>
