<svg width="41" height="52" viewBox="0 0 41 52" fill="none" xmlns="http://www.w3.org/2000/svg">
<path d="M20.6552 0.140137C15.4437 0.139866 10.4426 2.27782 6.73899 6.08932C3.03539 9.90082 0.92858 15.0778 0.876465 20.4951C0.876465 34.5791 18.3065 50.2565 19.0482 50.9248C19.496 51.3229 20.0659 51.5417 20.6552 51.5417C21.2445 51.5417 21.8144 51.3229 22.2622 50.9248C23.1276 50.2565 40.434 34.5791 40.434 20.4951C40.3819 15.0778 38.275 9.90082 34.5714 6.08932C30.8678 2.27782 25.8668 0.139866 20.6552 0.140137ZM20.6552 45.5019C16.5264 41.4155 5.82115 30.0815 5.82115 20.4951C5.82115 16.4054 7.38402 12.4831 10.166 9.59122C12.9479 6.69932 16.721 5.07468 20.6552 5.07468C24.5895 5.07468 28.3626 6.69932 31.1445 9.59122C33.9264 12.4831 35.4893 16.4054 35.4893 20.4951C35.4893 30.0044 24.784 41.4155 20.6552 45.5019Z" fill="white"/>
<path d="M20.6552 10.4205C18.9437 10.4205 17.2707 10.9481 15.8477 11.9365C14.4247 12.9249 13.3156 14.3298 12.6606 15.9735C12.0057 17.6171 11.8343 19.4258 12.1682 21.1707C12.5021 22.9156 13.3263 24.5184 14.5364 25.7764C15.7466 27.0344 17.2884 27.8911 18.967 28.2382C20.6456 28.5853 22.3854 28.4071 23.9666 27.7263C25.5478 27.0455 26.8992 25.8925 27.85 24.4133C28.8009 22.934 29.3084 21.1949 29.3084 19.4158C29.3084 17.0301 28.3967 14.7421 26.7739 13.0552C25.1511 11.3682 22.9501 10.4205 20.6552 10.4205ZM20.6552 23.2709C19.9217 23.2709 19.2047 23.0448 18.5948 22.6212C17.985 22.1976 17.5096 21.5955 17.2289 20.8911C16.9483 20.1866 16.8748 19.4115 17.0179 18.6637C17.161 17.9159 17.5142 17.229 18.0328 16.6898C18.5515 16.1507 19.2123 15.7835 19.9317 15.6348C20.651 15.486 21.3967 15.5623 22.0744 15.8541C22.752 16.1459 23.3312 16.64 23.7387 17.274C24.1462 17.908 24.3637 18.6533 24.3637 19.4158C24.3637 20.4382 23.973 21.4188 23.2775 22.1418C22.582 22.8647 21.6387 23.2709 20.6552 23.2709Z" fill="white"/>
</svg>
