<svg width="41" height="52" viewBox="0 0 41 52" fill="none" xmlns="http://www.w3.org/2000/svg">
<path d="M20.6552 0.140137C15.4437 0.139866 10.4426 2.27782 6.73899 6.08932C3.03539 9.90082 0.92858 15.0778 0.876465 20.4951C0.876465 34.5791 18.3065 50.2565 19.0482 50.9248C19.496 51.3229 20.0659 51.5417 20.6552 51.5417C21.2445 51.5417 21.8144 51.3229 22.2622 50.9248C23.1276 50.2565 40.434 34.5791 40.434 20.4951C40.3819 15.0778 38.2751 9.90082 34.5714 6.08932C30.8678 2.27782 25.8668 0.139866 20.6552 0.140137ZM20.6552 45.5019C16.5264 41.4155 5.82115 30.0815 5.82115 20.4951C5.82115 16.4054 7.38403 12.4831 10.166 9.59122C12.9479 6.69932 16.721 5.07468 20.6552 5.07468C24.5895 5.07468 28.3626 6.69932 31.1445 9.59122C33.9264 12.4831 35.4893 16.4054 35.4893 20.4951C35.4893 30.0044 24.784 41.4155 20.6552 45.5019Z" fill="white"/>
<path d="M20.6552 10.4204C18.9437 10.4204 17.2707 10.948 15.8477 11.9364C14.4247 12.9248 13.3156 14.3297 12.6606 15.9733C12.0057 17.617 11.8343 19.4256 12.1682 21.1705C12.5021 22.9155 13.3263 24.5183 14.5364 25.7763C15.7466 27.0343 17.2884 27.891 18.967 28.2381C20.6456 28.5852 22.3854 28.407 23.9666 27.7262C25.5478 27.0454 26.8992 25.8924 27.85 24.4132C28.8009 22.9339 29.3084 21.1948 29.3084 19.4157C29.3084 17.03 28.3967 14.742 26.7739 13.0551C25.1511 11.3681 22.9501 10.4204 20.6552 10.4204ZM20.6552 23.2708C19.9217 23.2708 19.2047 23.0447 18.5948 22.6211C17.985 22.1975 17.5096 21.5954 17.2289 20.8909C16.9483 20.1865 16.8748 19.4114 17.0179 18.6636C17.161 17.9157 17.5142 17.2288 18.0328 16.6897C18.5515 16.1505 19.2123 15.7834 19.9317 15.6346C20.651 15.4859 21.3967 15.5622 22.0744 15.854C22.752 16.1458 23.3312 16.6399 23.7387 17.2739C24.1462 17.9078 24.3637 18.6532 24.3637 19.4157C24.3637 20.4381 23.973 21.4187 23.2775 22.1416C22.582 22.8646 21.6387 23.2708 20.6552 23.2708Z" fill="white"/>
</svg>
