<svg width="81" height="53" viewBox="0 0 81 53" fill="none" xmlns="http://www.w3.org/2000/svg">
<path d="M20.3005 44.1666H27.7659V25.969L17.1011 17.9407V40.9552C17.1011 42.7295 18.5328 44.1666 20.3005 44.1666Z" fill="white"/>
<path d="M53.3616 44.1666H60.8269C62.5946 44.1666 64.0264 42.7295 64.0264 40.9552V17.9407L53.3616 25.969V44.1666Z" fill="white"/>
<path d="M53.3616 12.0532V25.969L64.0264 17.9407V13.6589C64.0264 9.69023 59.5125 7.42357 56.3477 9.80531L53.3616 12.0532Z" fill="#EBEBEB"/>
<path d="M27.7661 25.969V12.0532L40.5639 21.6872L53.3617 12.0532V25.969L40.5639 35.603L27.7661 25.969Z" fill="white"/>
<path d="M17.1011 13.6589V17.9407L27.7659 25.969V12.0532L24.7797 9.80531C21.615 7.42357 17.1011 9.69023 17.1011 13.6589Z" fill="#EBEBEB"/>
</svg>
