<svg width="83" height="83" viewBox="0 0 83 83" fill="none" xmlns="http://www.w3.org/2000/svg">
<path d="M41.5638 82.654C64.3518 82.654 82.8252 64.2287 82.8252 41.4999C82.8252 18.771 64.3518 0.345703 41.5638 0.345703C18.7758 0.345703 0.30249 18.771 0.30249 41.4999C0.30249 64.2287 18.7758 82.654 41.5638 82.654Z" fill="#DB00FF"/>
<path d="M41.5641 17.084C34.9207 17.084 34.0746 17.1117 31.4672 17.2362C28.8598 17.3607 27.0845 17.7618 25.5311 18.3705C23.9223 18.993 22.5492 19.823 21.19 21.1925C19.8308 22.5482 18.9986 23.9177 18.3607 25.5223C17.7504 27.0717 17.3343 28.8562 17.2234 31.443C17.1124 34.0436 17.0708 34.8736 17.0708 41.5136C17.0708 48.1398 17.0985 48.9698 17.2234 51.5843C17.3482 54.185 17.7504 55.9557 18.3607 57.505C18.9848 59.1096 19.8169 60.4791 21.19 61.8348C22.5492 63.1905 23.9223 64.0343 25.5311 64.6568C27.0845 65.2655 28.8736 65.6666 31.4672 65.7911C34.0746 65.9156 34.9068 65.9433 41.5641 65.9433C48.2075 65.9433 49.0397 65.9156 51.661 65.7911C54.2684 65.6666 56.0437 65.2655 57.6109 64.6568C59.2198 64.0343 60.579 63.1905 61.9382 61.8348C63.2974 60.4791 64.1295 59.1096 64.7675 57.505C65.3639 55.9557 65.78 54.185 65.9048 51.5843C66.0158 48.9836 66.0574 48.1536 66.0574 41.5136C66.0574 34.8875 66.0296 34.0575 65.9048 31.443C65.78 28.8423 65.3639 27.0717 64.7675 25.5223C64.1434 23.9177 63.2974 22.5482 61.9382 21.1925C60.579 19.8368 59.2198 19.0068 57.5971 18.3705C56.0298 17.7618 54.2546 17.3607 51.6471 17.2362C49.0397 17.1117 48.2075 17.084 41.5641 17.084ZM39.3727 21.483C40.0246 21.483 40.7458 21.483 41.5641 21.483C48.0966 21.483 48.8732 21.5107 51.4529 21.6213C53.8385 21.732 55.1283 22.1331 56.0021 22.4651C57.1394 22.9078 57.9577 23.4335 58.8176 24.2912C59.6775 25.1488 60.2045 25.965 60.6483 27.0993C60.9812 27.957 61.3834 29.2573 61.4944 31.6366C61.6053 34.2097 61.633 34.9843 61.633 41.4998C61.633 48.0153 61.6053 48.79 61.4944 51.363C61.3834 53.7423 60.9812 55.0288 60.6483 55.9003C60.2045 57.0346 59.6775 57.8508 58.8176 58.7085C57.9577 59.5661 57.1532 60.0918 56.0021 60.5345C55.1422 60.8665 53.8385 61.2676 51.4529 61.3783C48.8732 61.489 48.0966 61.5166 41.5641 61.5166C35.0316 61.5166 34.2549 61.489 31.6752 61.3783C29.2897 61.2676 27.9999 60.8665 27.1261 60.5345C25.9888 60.0918 25.1705 59.5661 24.3106 58.7085C23.4507 57.8508 22.9237 57.0346 22.4798 55.9003C22.147 55.0426 21.7448 53.7423 21.6338 51.363C21.5229 48.79 21.4951 48.0153 21.4951 41.4998C21.4951 34.9843 21.5229 34.2097 21.6338 31.6366C21.7448 29.2573 22.147 27.9708 22.4798 27.0993C22.9237 25.965 23.4507 25.1488 24.3106 24.2912C25.1705 23.4335 25.9888 22.9078 27.1261 22.4651C27.986 22.1331 29.2897 21.732 31.6752 21.6213C33.9359 21.5107 34.8097 21.483 39.3727 21.483ZM54.629 25.5362C53.0063 25.5362 51.6887 26.8503 51.6887 28.4688C51.6887 30.0873 53.0063 31.4015 54.629 31.4015C56.2517 31.4015 57.5693 30.0873 57.5693 28.4688C57.5693 26.8503 56.2517 25.5362 54.629 25.5362ZM41.5641 28.9668C34.6155 28.9668 28.9984 34.5831 28.9984 41.4998C28.9984 48.4303 34.6294 54.0328 41.5641 54.0328C48.5126 54.0328 54.1297 48.4165 54.1297 41.4998C54.1297 34.5693 48.5126 28.9668 41.5641 28.9668ZM41.5641 33.3658C46.0716 33.3658 49.7193 37.004 49.7193 41.4998C49.7193 45.9956 46.0716 49.6338 41.5641 49.6338C37.0565 49.6338 33.4089 45.9956 33.4089 41.4998C33.4089 37.004 37.0565 33.3658 41.5641 33.3658Z" fill="white"/>
</svg>
