<svg width="71" height="71" viewBox="0 0 71 71" fill="none" xmlns="http://www.w3.org/2000/svg">
<path d="M15.2539 20.3149H55.3312C57.064 20.3149 58.382 18.9969 58.382 17.2641C58.382 15.6 57.064 14.2821 55.3312 14.2821H15.2539C13.5211 14.2821 12.2031 15.6 12.2031 17.2641C12.2031 18.9969 13.5211 20.3149 15.2539 20.3149ZM15.2539 32.4492H55.3312C57.064 32.4492 58.382 31.1313 58.382 29.3984C58.382 27.7344 57.064 26.4164 55.3312 26.4164H15.2539C13.5211 26.4164 12.2031 27.7344 12.2031 29.3984C12.2031 31.1313 13.5211 32.4492 15.2539 32.4492ZM15.2539 44.5836H55.3312C57.064 44.5836 58.382 43.2656 58.382 41.6016C58.382 39.8687 57.064 38.5508 55.3312 38.5508H15.2539C13.5211 38.5508 12.2031 39.8687 12.2031 41.6016C12.2031 43.2656 13.5211 44.5836 15.2539 44.5836ZM15.2539 56.7179H55.3312C57.064 56.7179 58.382 55.4 58.382 53.7359C58.382 52.0031 57.064 50.6851 55.3312 50.6851H15.2539C13.5211 50.6851 12.2031 52.0031 12.2031 53.7359C12.2031 55.4 13.5211 56.7179 15.2539 56.7179Z" fill="white"/>
</svg>
