<svg width="71" height="71" viewBox="0 0 71 71" fill="none" xmlns="http://www.w3.org/2000/svg">
<path d="M35.4998 65.8098C52.0513 65.8098 65.8097 52.0812 65.8097 35.5C65.8097 18.9485 52.0217 5.19022 35.4702 5.19022C18.8889 5.19022 5.19019 18.9485 5.19019 35.5C5.19019 52.0812 18.9187 65.8098 35.4998 65.8098ZM35.4998 18.3839C41.1755 18.3839 45.6923 23.3761 45.6923 29.3786C45.6923 35.7674 41.2052 40.6408 35.4998 40.5813C29.7648 40.5218 25.3075 35.7674 25.3075 29.3786C25.2481 23.3761 29.7945 18.3839 35.4998 18.3839ZM53.5668 53.0915L53.6559 53.4778C49.0798 58.3511 42.3047 61.1444 35.4998 61.1444C28.6653 61.1444 21.8901 58.3511 17.3141 53.4778L17.4032 53.0915C19.9884 49.5257 26.3476 45.633 35.4998 45.633C44.6224 45.633 51.0113 49.5257 53.5668 53.0915Z" fill="white"/>
</svg>
