<svg width="69" height="68" viewBox="0 0 69 68" fill="none" xmlns="http://www.w3.org/2000/svg">
<path d="M34.4048 67.9169C53.1925 67.9169 68.8098 52.5356 68.8098 33.9584C68.8098 15.4145 53.1588 0 34.3711 0C15.5495 0 0 15.4145 0 33.9584C0 52.5356 15.5833 67.9169 34.4048 67.9169ZM34.4048 14.7819C40.8473 14.7819 45.9743 20.3751 45.9743 27.1002C45.9743 34.258 40.881 39.7181 34.4048 39.6514C27.8949 39.5848 22.8354 34.258 22.8354 27.1002C22.7679 20.3751 27.9286 14.7819 34.4048 14.7819ZM54.9127 53.6676L55.0139 54.1004C49.8196 59.5603 42.129 62.6899 34.4048 62.6899C26.6468 62.6899 18.9563 59.5603 13.7619 54.1004L13.8631 53.6676C16.7975 49.6725 24.0159 45.3112 34.4048 45.3112C44.7599 45.3112 52.012 49.6725 54.9127 53.6676Z" fill="white"/>
</svg>
