<svg width="71" height="71" viewBox="0 0 71 71" fill="none" xmlns="http://www.w3.org/2000/svg">
<path d="M35.4999 65.8098C52.0514 65.8098 65.8098 52.0812 65.8098 35.5C65.8098 18.9485 52.0217 5.19023 35.4702 5.19023C18.8889 5.19023 5.19025 18.9485 5.19025 35.5C5.19025 52.0812 18.9187 65.8098 35.4999 65.8098ZM35.4999 18.3839C41.1756 18.3839 45.6923 23.3761 45.6923 29.3787C45.6923 35.7674 41.2052 40.6408 35.4999 40.5813C29.7649 40.5219 25.3076 35.7674 25.3076 29.3787C25.2481 23.3761 29.7945 18.3839 35.4999 18.3839ZM53.5669 53.0915L53.656 53.4778C49.0799 58.3511 42.3047 61.1444 35.4999 61.1444C28.6654 61.1444 21.8902 58.3511 17.3141 53.4778L17.4033 53.0915C19.9884 49.5257 26.3476 45.633 35.4999 45.633C44.6225 45.633 51.0114 49.5257 53.5669 53.0915Z" fill="white"/>
</svg>
