<svg width="486" height="326" viewBox="0 0 486 326" fill="none" xmlns="http://www.w3.org/2000/svg">
<path d="M386.273 213.405C389.823 208.723 396.631 208.088 400.984 212.033L471.553 275.991C475.913 279.943 475.927 286.781 471.583 290.754L462.763 298.821C458.932 302.325 453.053 302.322 449.228 298.814L380.602 235.86C376.805 232.377 376.283 226.582 379.396 222.476L386.273 213.405Z" fill="url(#paint0_linear_626_17)"/>
<path d="M426.534 218.868C395.615 278.029 322.496 300.973 263.218 270.115C203.94 239.257 180.951 166.282 211.87 107.121C242.789 47.9595 315.908 25.0155 375.186 55.8736C434.464 86.7318 457.453 159.707 426.534 218.868ZM244.685 124.203C223.219 165.277 239.18 215.94 280.334 237.364C321.489 258.788 372.253 242.859 393.719 201.785C415.185 160.712 399.224 110.048 358.069 88.6243C316.915 67.2006 266.151 83.1299 244.685 124.203Z" fill="url(#paint1_linear_626_17)"/>
<path d="M307.955 99.5709C322.962 98.4011 332.613 99.0372 344.972 104.563C358.04 110.406 364.481 118.371 371.985 131.522" stroke="#BA04DD" stroke-width="20" stroke-linecap="round"/>
<path d="M229.846 258.439C231.729 260.68 231.292 264.059 228.821 265.635C211.461 276.714 189.75 284.544 169.563 285.922C147.581 287.424 125.608 282.877 106.035 272.778C86.463 262.679 70.042 247.414 58.5603 228.646C47.0787 209.877 40.9764 188.325 40.918 166.335C40.8596 144.345 46.8472 122.76 58.229 103.931C69.6108 85.1023 85.9504 69.7507 105.469 59.5481C124.987 49.3454 146.936 44.6826 168.926 46.0676C189.097 47.3379 208.592 53.6521 225.633 64.39C228.114 65.9537 228.562 69.3391 226.68 71.5904L209.824 91.7483C208.16 93.7377 205.261 94.1087 203.041 92.7714C191.76 85.9774 180.315 83.6035 166.607 82.7402C151.34 81.7787 136.102 85.0158 122.551 92.0992C109 99.1825 97.6563 109.841 89.7543 122.913C81.8524 135.985 77.6954 150.97 77.7359 166.237C77.7765 181.504 82.0131 196.467 89.9844 209.497C97.9557 222.528 109.356 233.125 122.944 240.137C136.533 247.148 151.788 250.305 167.049 249.263C180.779 248.325 194.04 244.022 205.668 236.765C207.873 235.389 210.781 235.752 212.45 237.739L229.846 258.439Z" fill="url(#paint2_linear_626_17)"/>
<defs>
<linearGradient id="paint0_linear_626_17" x1="397.996" y1="350.968" x2="408.515" y2="239.402" gradientUnits="userSpaceOnUse">
<stop stop-color="#6F09C6"/>
<stop offset="1" stop-color="#BB04DE"/>
</linearGradient>
<linearGradient id="paint1_linear_626_17" x1="235.923" y1="300.544" x2="416.529" y2="44.5963" gradientUnits="userSpaceOnUse">
<stop stop-color="#560ABE"/>
<stop offset="1" stop-color="#C902E2"/>
</linearGradient>
<linearGradient id="paint2_linear_626_17" x1="94.6571" y1="249.112" x2="174.811" y2="103.411" gradientUnits="userSpaceOnUse">
<stop offset="0.00763773" stop-color="#3413B9"/>
<stop offset="1" stop-color="#7001BE"/>
<stop offset="1" stop-color="#7D01FD"/>
</linearGradient>
</defs>
</svg>
