<svg width="59" height="59" viewBox="0 0 59 59" fill="none" xmlns="http://www.w3.org/2000/svg">
<path d="M41.3 0H17.7C5.9 0 0 5.88234 0 17.647V32.353C0 47.0589 5.9 50 17.7 50H19.175C20.001 50 21.063 50.5294 21.535 51.1765L25.96 57.0588C27.907 59.6471 31.093 59.6471 33.04 57.0588L37.465 51.1765C38.0255 50.4412 38.9105 50 39.825 50H41.3C53.1 50 59 44.1177 59 32.353V17.647C59 5.88234 53.1 0 41.3 0ZM19.2635 29.9998C20.119 30.8527 20.119 32.2645 19.2635 33.1174C18.821 33.5586 18.2605 33.7645 17.7 33.7645C17.1395 33.7645 16.579 33.5586 16.1365 33.1174L10.2365 27.2351C9.381 26.3821 9.381 24.9704 10.2365 24.1174L16.1365 18.2352C16.992 17.3823 18.408 17.3823 19.2635 18.2352C20.119 19.0882 20.119 20.5 19.2635 21.3529L14.927 25.6763L19.2635 29.9998ZM34.4855 19.6764L28.5855 33.4115C28.2315 34.2351 27.4055 34.7351 26.55 34.7351C26.255 34.7351 25.96 34.6762 25.665 34.5589C24.544 34.0883 24.013 32.7939 24.5145 31.6468L30.4145 17.9117C30.8865 16.7941 32.1845 16.2647 33.335 16.7647C34.456 17.2647 34.9575 18.5588 34.4855 19.6764ZM48.7635 27.2351L42.8635 33.1174C42.421 33.5586 41.8605 33.7645 41.3 33.7645C40.7395 33.7645 40.179 33.5586 39.7365 33.1174C38.881 32.2645 38.881 30.8527 39.7365 29.9998L44.073 25.6763L39.7365 21.3529C38.881 20.5 38.881 19.0882 39.7365 18.2352C40.592 17.3823 42.008 17.3823 42.8635 18.2352L48.7635 24.1174C49.619 24.9704 49.619 26.3821 48.7635 27.2351Z" fill="white"/>
</svg>
