<svg width="30" height="30" viewBox="0 0 30 30" fill="none" xmlns="http://www.w3.org/2000/svg">
<path d="M2.84131 30C1.22327 30 0.274959 28.1786 1.20285 26.8531L8.66882 16.1874C9.16468 15.479 9.14916 14.5322 8.63036 13.8405L1.4 4.2C0.411145 2.88153 1.35191 1 3 1H8.3945C9.08245 1 9.72211 1.35357 10.0881 1.93612L15.1572 10.0055C15.1927 10.0621 15.2548 10.0964 15.3216 10.0964C15.3882 10.0964 15.4501 10.0623 15.4857 10.006L20.9112 1.43069C21.2778 0.851249 21.9156 0.5 22.6013 0.5H26.9724C28.6255 0.5 29.5649 2.39172 28.5658 3.70877L20.9016 13.8115C20.3667 14.5166 20.3588 15.4893 20.8822 16.203L28.666 26.8173C29.6348 28.1383 28.6914 30 27.0532 30H22.5336C21.8853 30 21.2772 29.6857 20.9021 29.1568L14.7272 20.4483C14.6743 20.3737 14.5885 20.3293 14.497 20.3293C14.4089 20.3293 14.3258 20.3705 14.2724 20.4406L7.60029 29.2109C7.22206 29.7081 6.63325 30 6.00855 30H2.84131Z" fill="white"/>
</svg>
