<svg width="36" height="37" viewBox="0 0 36 37" fill="none" xmlns="http://www.w3.org/2000/svg">
<path d="M1.55255 1.39457C2.96234 0.07208 5.17728 0.142853 6.49977 1.55264L33.8663 30.7258C35.1888 32.1356 35.118 34.3505 33.7082 35.673C32.2985 36.9955 30.0835 36.9247 28.761 35.5149L1.39447 6.34179C0.0719832 4.932 0.142757 2.71705 1.55255 1.39457Z" fill="white"/>
<path d="M1.31607 35.5247C-0.222634 34.0461 -0.27136 31.6001 1.20724 30.0614L28.4426 1.71887C29.9212 0.180164 32.3672 0.131433 33.9059 1.61003C35.4446 3.08863 35.4933 5.53463 34.0147 7.07333L6.77938 35.4158C5.30078 36.9545 2.85477 37.0033 1.31607 35.5247Z" fill="white"/>
</svg>
